<svg width="21" height="21" viewBox="0 0 21 21" fill="none" xmlns="http://www.w3.org/2000/svg">
<path d="M15.75 8.75027L12.25 5.25027M2.1875 18.8128L5.14882 18.4837C5.51063 18.4435 5.69153 18.4234 5.86062 18.3687C6.01063 18.3201 6.15339 18.2515 6.28503 18.1647C6.4334 18.0669 6.5621 17.9382 6.81951 17.6808L18.375 6.12527C19.3415 5.15877 19.3415 3.59176 18.375 2.62526C17.4085 1.65877 15.8415 1.65877 14.875 2.62526L3.31951 14.1808C3.0621 14.4382 2.9334 14.5669 2.83556 14.7152C2.74875 14.8469 2.68014 14.9896 2.63157 15.1397C2.57684 15.3087 2.55674 15.4896 2.51654 15.8514L2.1875 18.8128Z" stroke="#333333" stroke-width="2" stroke-linecap="round" stroke-linejoin="round"/>
</svg>
