<svg width="21" height="21" viewBox="0 0 21 21" fill="none" xmlns="http://www.w3.org/2000/svg">
<g clip-path="url(#clip0_977_942)">
<path d="M19.25 9.70001V10.505C19.2489 12.3919 18.6379 14.2279 17.5082 15.7391C16.3784 17.2504 14.7904 18.3559 12.9809 18.8909C11.1715 19.4259 9.2376 19.3617 7.46766 18.7078C5.69772 18.0539 4.18657 16.8453 3.15959 15.2624C2.13261 13.6795 1.64482 11.8071 1.76897 9.92428C1.89312 8.0415 2.62256 6.24929 3.8485 4.81495C5.07443 3.3806 6.73119 2.38097 8.57167 1.96514C10.4121 1.5493 12.3377 1.73955 14.0613 2.50751M19.25 3.5L10.5 12.2588L7.875 9.63375" stroke="#FF4E37" stroke-width="2" stroke-linecap="round" stroke-linejoin="round"/>
</g>
<defs>
<clipPath id="clip0_977_942">
<rect width="21" height="21" fill="white"/>
</clipPath>
</defs>
</svg>
