<svg width="12" height="12" viewBox="0 0 12 12" fill="none" xmlns="http://www.w3.org/2000/svg">
<path d="M5.9069 9.34341L8.93815 11.1715C9.14648 11.2965 9.3444 11.2887 9.5319 11.1481C9.7194 11.0075 9.78711 10.8226 9.73503 10.5934L8.93815 7.14028L11.6257 4.81216C11.8027 4.65591 11.8548 4.4658 11.7819 4.24184C11.709 4.01788 11.5527 3.89549 11.3132 3.87466L7.7819 3.57778L6.39128 0.312156C6.30794 0.103823 6.14648 -0.000344276 5.9069 -0.000344276C5.66732 -0.000344276 5.50586 0.103823 5.42253 0.312156L4.0319 3.57778L0.500651 3.87466C0.261068 3.89549 0.104818 4.01788 0.031901 4.24184C-0.0410156 4.4658 0.0110677 4.65591 0.188151 4.81216L2.87565 7.14028L2.07878 10.5934C2.01628 10.8226 2.08138 11.0075 2.27409 11.1481C2.4668 11.2887 2.66732 11.2965 2.87565 11.1715L5.9069 9.34341Z" fill="#FF4D26"/>
</svg>
